<?xml version="1.0" standalone="no"?>
<!DOCTYPE svg PUBLIC "-//W3C//DTD SVG 20010904//EN"
 "http://www.w3.org/TR/2001/REC-SVG-20010904/DTD/svg10.dtd">
<svg version="1.0" xmlns="http://www.w3.org/2000/svg"
 width="200.000000pt" height="200.000000pt" viewBox="0 0 200.000000 200.000000"
 preserveAspectRatio="xMidYMid meet">
<metadata>
Created by potrace 1.14, written by Peter Selinger 2001-2017
</metadata>
<g transform="translate(0.000000,200.000000) scale(0.100000,-0.100000)"
fill="#000000" stroke="none">
<path d="M866 1649 c-113 -61 -173 -193 -141 -311 4 -16 12 -28 17 -28 6 0 -9
-24 -34 -52 -88 -106 -129 -170 -192 -304 -56 -117 -63 -199 -27 -295 24 -63
54 -98 119 -140 45 -29 45 -32 -2 -43 -115 -28 -156 -174 -69 -247 16 -13 19
-27 17 -80 -2 -35 -10 -83 -18 -106 l-15 -43 439 0 439 0 -1 35 c-1 19 2 38 5
42 4 3 7 -1 7 -11 0 -9 7 -28 16 -41 15 -23 23 -25 91 -25 41 0 73 3 71 8 -2
4 -15 30 -29 57 -56 107 -66 167 -33 202 52 56 48 141 -9 205 -32 35 -110 73
-128 63 -17 -11 -9 12 10 29 73 66 86 255 29 406 -57 150 -209 337 -324 397
-29 15 -50 32 -46 38 11 17 14 37 15 101 0 46 -5 69 -20 95 -41 66 -118 86
-187 48z"/>
</g>
</svg>
